# xmcd CD database file
#
# Track frame offsets:
#	150
#	19540
#	51690
#	65116
#	88553
#	113534
#	146197
#	171248
#	211417
#	228777
#	239727
#	255119
#
# Disc length: 3917 seconds
#
# Revision: 2
# Processed by: cddbd v1.4b41PL1 Copyright (c) Steve Scherf et al.
# Submitted via: Feurio! 1.52 - http://www.feurio.com
#
DISCID=a70f4b0c
DTITLE=Bugs Henderson - Call Of The Wild (Live at the Meisenfrei) - CD1
DYEAR=1999
DGENRE=
TTITLE0=Hide Away
TTITLE1=Heartbreak Gumbo
TTITLE2=Big D Shuffle
TTITLE3=Chain Me
TTITLE4=Love Junkie
TTITLE5=Lost In The Shuffle
TTITLE6=Honey Mama
TTITLE7=Blues In Reverse
TTITLE8=Drug Store Blues
TTITLE9=Daredevils Of The Red Guitar
TTITLE10=The Big Roar
TTITLE11=It Ain't Nobody's Business If I Do
EXTD=YEAR:1999 Taxim Records
EXTT0=
EXTT1=
EXTT2=
EXTT3=
EXTT4=
EXTT5=
EXTT6=
EXTT7=
EXTT8=
EXTT9=
EXTT10=
EXTT11=
PLAYORDER=
